<svg xmlns="http://www.w3.org/2000/svg" xmlns:v="https://svgstorm.com"
viewBox = "0 0 641 612"
width="641"
height="612">
<g fill="None" fill-opacity="0.0" stroke="#000000" stroke-opacity="0.00" stroke-width="0.3"><path d="
M 0.00 612.00 
L 641.00 612.00
L 641.00 0.00
L 0.00 0.00
L 0.00 612.00
M 474.00 144.00 
C 470.58 146.21 465.18 144.42 461.00 145.00
C 447.83 144.33 433.34 146.33 421.00 144.00
C 388.63 125.93 357.66 101.43 327.25 81.75 C 316.31 70.82 305.92 89.38 295.00 93.00
C 294.02 95.01 291.64 95.64 290.00 97.00
C 279.70 103.22 270.45 111.44 260.00 117.00
C 259.07 119.17 256.95 120.11 255.00 121.00
C 243.05 128.80 232.03 138.43 219.00 144.00
C 201.74 145.66 181.19 145.67 164.00 144.00
C 147.61 143.07 147.67 118.71 162.70 114.70 C 204.51 84.38 246.54 54.42 288.70 24.70 C 300.01 18.68 309.53 4.26 323.07 5.93 C 375.51 40.47 428.35 79.09 480.75 116.25 C 494.52 120.64 491.42 146.84 474.00 144.00
M 297.00 130.00 
C 316.69 133.80 313.35 167.09 291.00 164.00 C 267.78 162.49 274.94 125.65 297.00 130.00
M 350.00 130.00 
C 370.85 133.86 366.64 168.70 344.00 164.00 C 322.00 161.35 328.57 126.40 350.00 130.00
M 220.00 159.00 
C 232.51 160.77 231.03 181.66 217.00 180.00 C 193.38 175.77 161.72 185.47 167.00 214.00
C 168.75 214.83 167.66 217.44 168.00 219.00
C 187.50 219.67 208.32 217.67 227.00 220.00
C 230.77 220.00 235.04 224.21 235.00 228.00
C 237.19 231.09 235.43 236.16 236.00 240.00
C 237.00 240.11 238.73 239.53 239.00 241.00
C 256.54 244.97 247.39 274.20 231.00 268.00
C 231.00 271.67 231.00 275.33 231.00 279.00
C 231.00 314.33 231.00 349.67 231.00 385.00
C 231.00 386.00 231.00 387.00 231.00 388.00
C 239.00 388.00 247.00 388.00 255.00 388.00 C 261.15 386.16 275.07 392.52 275.00 383.00
C 275.67 338.50 273.67 292.68 276.00 249.00
C 275.57 241.46 284.95 231.92 292.08 236.92 C 299.92 240.43 305.08 241.18 315.00 242.00
C 318.33 242.00 321.67 242.00 325.00 242.00
C 337.22 244.33 349.80 229.91 359.75 239.25 C 370.15 249.60 363.49 264.74 365.00 278.00 C 365.00 309.00 365.00 340.00 365.00 371.00
C 367.26 375.75 365.38 382.49 366.00 388.00
C 380.67 388.00 395.33 388.00 410.00 388.00
C 410.00 351.67 410.00 315.33 410.00 279.00
C 410.00 275.33 410.00 271.67 410.00 268.00
C 391.28 274.57 384.96 240.97 405.00 240.00
C 404.57 232.44 403.62 220.26 414.00 220.00
C 432.76 217.67 453.49 219.66 473.00 219.00
C 473.52 216.81 471.86 213.38 474.00 212.00
C 477.22 183.79 445.42 176.28 423.00 180.00 C 409.92 181.78 407.23 160.06 420.00 159.00
C 433.93 157.34 451.14 157.33 465.00 159.00
C 471.63 159.01 476.67 163.66 482.00 167.00
C 485.30 169.54 488.56 172.69 491.00 176.00
C 525.99 174.83 562.80 197.19 575.78 231.22 C 580.66 241.37 596.41 241.78 604.23 250.77 C 622.70 267.15 635.99 288.50 637.00 313.00
C 638.62 317.92 638.69 326.15 637.00 331.00
C 633.82 373.53 595.20 411.78 551.00 415.00
C 551.74 441.60 552.91 469.98 534.00 490.00
C 531.46 493.30 528.31 496.56 525.00 499.00
C 513.49 508.16 499.87 514.53 485.00 515.00
C 454.40 516.67 420.53 516.67 390.00 515.00
C 388.16 515.20 386.72 516.54 385.00 515.00
C 389.14 540.04 401.04 566.17 424.23 579.77 C 437.87 583.72 440.24 606.97 424.00 608.00
C 355.73 609.67 284.20 609.67 216.00 608.00
C 206.63 607.61 203.87 595.29 207.00 588.00
C 209.05 585.09 211.70 582.26 215.00 581.00
C 219.30 578.78 222.50 574.51 227.00 573.00
C 232.11 567.91 236.09 561.84 241.00 557.00
C 247.43 544.02 253.51 530.47 256.00 516.00
C 251.67 516.00 247.33 516.00 243.00 516.00
C 213.83 515.33 183.35 517.33 155.00 515.00
C 140.53 514.59 127.19 507.81 116.00 499.00
C 112.70 496.46 109.44 493.31 107.00 490.00
C 97.96 479.18 91.49 466.25 91.00 452.00
C 88.68 440.57 90.66 427.18 90.00 415.00
C 18.13 411.74 -25.55 314.92 26.00 262.00
C 28.87 258.36 32.36 254.77 36.00 252.00
C 46.03 239.82 66.21 241.04 68.78 223.78 C 83.69 196.17 113.68 176.15 144.00 177.00
C 145.53 174.93 149.09 176.93 151.00 175.00
C 157.08 167.57 164.58 160.51 174.00 159.00
C 188.26 157.34 205.81 157.33 220.00 159.00
M 287.00 179.00 
C 295.73 191.71 310.42 201.46 326.02 198.02 C 342.12 201.05 349.35 170.89 363.25 182.75 C 368.13 196.47 351.88 208.20 339.77 213.77 C 323.98 219.13 305.20 218.17 291.25 208.75 C 279.24 203.02 266.05 178.98 287.00 179.00 Z"/>
</g>
<g fill="None" fill-opacity="0.0" stroke="#0E212D" stroke-opacity="1.00" stroke-width="0.3"><path d="
M 164.00 144.00 
C 182.33 144.00 200.67 144.00 219.00 144.00
C 232.03 138.43 243.05 128.80 255.00 121.00
C 255.98 118.99 258.36 118.36 260.00 117.00
C 270.45 111.44 279.70 103.22 290.00 97.00
C 290.93 94.83 293.05 93.89 295.00 93.00
C 305.92 89.38 316.31 70.82 327.25 81.75 C 357.66 101.43 388.63 125.93 421.00 144.00
C 434.33 144.00 447.67 144.00 461.00 144.00
C 465.33 144.00 469.67 144.00 474.00 144.00
C 491.42 146.84 494.52 120.64 480.75 116.25 C 428.35 79.09 375.51 40.47 323.07 5.93 C 309.53 4.26 300.01 18.68 288.70 24.70 C 246.54 54.42 204.51 84.38 162.70 114.70 C 147.67 118.71 147.61 143.07 164.00 144.00
M 447.00 123.00 
C 447.83 123.41 448.87 123.97 449.00 125.00
C 445.00 125.00 441.00 125.00 437.00 125.00
C 434.65 124.74 430.93 126.03 430.00 123.00
C 392.15 98.65 357.86 71.59 319.98 49.02 C 283.05 71.31 247.15 99.50 210.00 124.00
C 206.13 125.19 192.80 126.71 193.00 123.00
C 235.04 96.10 277.30 63.59 320.00 35.00
C 362.64 63.88 404.60 94.11 447.00 123.00 Z"/>
</g>
<g fill="None" fill-opacity="0.0" stroke="#000000" stroke-opacity="0.00" stroke-width="0.3"><path d="
M 193.00 123.00 
C 197.75 125.26 204.49 123.38 210.00 124.00
C 247.15 99.50 283.05 71.31 319.98 49.02 C 357.86 71.59 392.15 98.65 430.00 123.00
C 431.97 124.59 434.66 123.80 437.00 124.00
C 440.17 123.39 444.65 125.25 447.00 123.00
C 404.60 94.11 362.64 63.88 320.00 35.00
C 277.30 63.59 235.04 96.10 193.00 123.00 Z"/>
</g>
<g fill="None" fill-opacity="0.0" stroke="#88949C" stroke-opacity="0.68" stroke-width="0.3"><path d="
M 290.00 97.00 
C 291.64 95.64 294.02 95.01 295.00 93.00
C 293.05 93.89 290.93 94.83 290.00 97.00 Z"/>
</g>
<g fill="None" fill-opacity="0.0" stroke="#8797A1" stroke-opacity="0.83" stroke-width="0.3"><path d="
M 255.00 121.00 
C 256.95 120.11 259.07 119.17 260.00 117.00
C 258.36 118.36 255.98 118.99 255.00 121.00 Z"/>
</g>
<g fill="None" fill-opacity="0.0" stroke="#626E75" stroke-opacity="1.00" stroke-width="0.3"><path d="
M 210.00 124.00 
C 204.49 123.38 197.75 125.26 193.00 123.00
C 192.80 126.71 206.13 125.19 210.00 124.00 Z"/>
</g>
<g fill="None" fill-opacity="0.0" stroke="#A0ADB0" stroke-opacity="0.38" stroke-width="0.3"><path d="
M 437.00 125.00 
C 436.96 125.00 437.00 124.00 437.00 124.00
C 434.66 123.80 431.97 124.59 430.00 123.00
C 430.93 126.03 434.65 124.74 437.00 125.00 Z"/>
</g>
<g fill="None" fill-opacity="0.0" stroke="#8D9CA3" stroke-opacity="0.95" stroke-width="0.3"><path d="
M 437.00 124.00 
C 437.00 124.00 436.96 125.00 437.00 125.00
C 441.00 125.00 445.00 125.00 449.00 125.00
C 448.87 123.97 447.83 123.41 447.00 123.00
C 444.65 125.25 440.17 123.39 437.00 124.00 Z"/>
</g>
<g fill="None" fill-opacity="0.0" stroke="#12242F" stroke-opacity="0.99" stroke-width="0.3"><path d="
M 297.00 130.00 
C 274.94 125.65 267.78 162.49 291.00 164.00 C 313.35 167.09 316.69 133.80 297.00 130.00 Z"/>
</g>
<g fill="None" fill-opacity="0.0" stroke="#112330" stroke-opacity="1.00" stroke-width="0.3"><path d="
M 350.00 130.00 
C 328.57 126.40 322.00 161.35 344.00 164.00 C 366.64 168.70 370.85 133.86 350.00 130.00 Z"/>
</g>
<g fill="None" fill-opacity="0.0" stroke="#8F9DA2" stroke-opacity="1.00" stroke-width="0.3"><path d="
M 219.00 144.00 
C 200.67 144.00 182.33 144.00 164.00 144.00
C 181.19 145.67 201.74 145.66 219.00 144.00 Z"/>
</g>
<g fill="None" fill-opacity="0.0" stroke="#849398" stroke-opacity="1.00" stroke-width="0.3"><path d="
M 461.00 145.00 
C 460.96 145.00 461.00 144.00 461.00 144.00
C 447.67 144.00 434.33 144.00 421.00 144.00
C 433.34 146.33 447.83 144.33 461.00 145.00 Z"/>
</g>
<g fill="None" fill-opacity="0.0" stroke="#B1BBC1" stroke-opacity="0.34" stroke-width="0.3"><path d="
M 461.00 145.00 
C 465.18 144.42 470.58 146.21 474.00 144.00
C 469.67 144.00 465.33 144.00 461.00 144.00
C 461.00 144.00 460.96 145.00 461.00 145.00 Z"/>
</g>
<g fill="None" fill-opacity="0.0" stroke="#687478" stroke-opacity="0.98" stroke-width="0.3"><path d="
M 174.00 159.00 
C 189.33 159.00 204.67 159.00 220.00 159.00
C 205.81 157.33 188.26 157.34 174.00 159.00 Z"/>
</g>
<g fill="None" fill-opacity="0.0" stroke="#6C787D" stroke-opacity="0.98" stroke-width="0.3"><path d="
M 420.00 159.00 
C 435.00 159.00 450.00 159.00 465.00 159.00
C 451.14 157.33 433.93 157.34 420.00 159.00 Z"/>
</g>
<g fill="None" fill-opacity="0.0" stroke="#0C1F2C" stroke-opacity="1.00" stroke-width="0.3"><path d="
M 151.00 175.00 
C 150.02 178.03 146.36 176.70 144.00 177.00
C 113.68 176.15 83.69 196.17 68.78 223.78 C 66.21 241.04 46.03 239.82 36.00 252.00
C 33.13 255.64 29.64 259.23 26.00 262.00
C -25.55 314.92 18.13 411.74 90.00 415.00
C 92.32 426.43 90.34 439.82 91.00 452.00
C 91.49 466.25 97.96 479.18 107.00 490.00
C 110.30 492.54 113.56 495.69 116.00 499.00
C 127.19 507.81 140.53 514.59 155.00 515.00
C 184.33 515.00 213.67 515.00 243.00 515.00
C 247.17 515.64 252.66 513.71 256.00 516.00
C 253.51 530.47 247.43 544.02 241.00 557.00
C 237.44 563.01 232.69 568.69 227.00 573.00
C 222.50 574.51 219.30 578.78 215.00 581.00
C 212.66 583.38 209.71 585.82 207.00 588.00
C 203.87 595.29 206.63 607.61 216.00 608.00
C 285.33 608.00 354.67 608.00 424.00 608.00
C 440.24 606.97 437.87 583.72 424.23 579.77 C 401.04 566.17 389.14 540.04 385.00 515.00
C 386.72 516.54 388.16 515.20 390.00 515.00
C 421.67 515.00 453.33 515.00 485.00 515.00
C 499.87 514.53 513.49 508.16 525.00 499.00
C 527.54 495.70 530.69 492.44 534.00 490.00
C 552.91 469.98 551.74 441.60 551.00 415.00
C 595.20 411.78 633.82 373.53 637.00 331.00
C 637.00 325.00 637.00 319.00 637.00 313.00
C 635.99 288.50 622.70 267.15 604.23 250.77 C 596.41 241.78 580.66 241.37 575.78 231.22 C 562.80 197.19 525.99 174.83 491.00 176.00
C 487.70 173.46 484.44 170.31 482.00 167.00
C 476.67 163.66 471.63 159.01 465.00 159.00
C 450.00 159.00 435.00 159.00 420.00 159.00
C 407.23 160.06 409.92 181.78 423.00 180.00 C 445.42 176.28 477.22 183.79 474.00 212.00
C 476.26 226.30 456.40 217.65 448.00 220.00 C 436.67 220.00 425.33 220.00 414.00 220.00
C 403.62 220.26 404.57 232.44 405.00 240.00
C 384.96 240.97 391.28 274.57 410.00 268.00
C 410.00 271.67 410.00 275.33 410.00 279.00
C 411.67 314.27 411.67 352.81 410.00 388.00
C 395.33 388.00 380.67 388.00 366.00 388.00
C 363.74 383.25 365.62 376.51 365.00 371.00
C 365.00 340.00 365.00 309.00 365.00 278.00 C 363.49 264.74 370.15 249.60 359.75 239.25 C 349.80 229.91 337.22 244.33 325.00 242.00
C 322.72 243.54 317.21 243.72 315.00 242.00
C 305.08 241.18 299.92 240.43 292.08 236.92 C 284.95 231.92 275.57 241.46 276.00 249.00
C 275.33 293.50 277.33 339.32 275.00 383.00
C 275.07 392.52 261.15 386.16 255.00 388.00 C 247.00 388.00 239.00 388.00 231.00 388.00
C 231.00 387.00 231.00 386.00 231.00 385.00
C 229.33 350.73 229.33 313.19 231.00 279.00
C 231.00 275.33 231.00 271.67 231.00 268.00
C 247.39 274.20 256.54 244.97 239.00 241.00
C 237.67 241.00 236.33 241.00 235.00 241.00
C 235.00 236.67 235.00 232.33 235.00 228.00
C 235.04 224.21 230.77 220.00 227.00 220.00
C 216.00 220.00 205.00 220.00 194.00 220.00 C 185.80 217.46 167.31 225.93 167.00 214.00
C 161.72 185.47 193.38 175.77 217.00 180.00 C 231.03 181.66 232.51 160.77 220.00 159.00
C 204.67 159.00 189.33 159.00 174.00 159.00
C 164.58 160.51 157.08 167.57 151.00 175.00
M 140.00 217.00 
C 140.27 226.31 145.45 235.55 153.23 240.77 C 160.85 249.63 176.68 241.12 184.00 247.00
C 184.00 250.33 184.00 253.67 184.00 257.00
C 183.39 265.35 194.06 271.02 201.00 268.00
C 203.33 293.43 201.33 320.82 202.00 347.00 C 200.93 351.76 204.31 364.06 200.00 364.00
C 186.74 361.18 180.19 374.63 183.00 386.00
C 185.79 388.23 180.45 388.17 179.00 388.00
C 153.00 388.00 127.00 388.00 101.00 388.00
C 98.48 387.44 94.70 389.19 93.00 387.00
C 79.85 385.35 67.87 379.46 57.00 372.00
C 53.36 369.13 49.77 365.64 47.00 362.00
C 40.10 351.48 33.67 340.12 33.00 327.00
C 31.46 324.72 31.28 319.21 33.00 317.00
C 34.99 287.75 59.39 259.82 90.00 260.00
C 91.13 234.80 110.42 209.96 136.00 206.00
C 136.53 204.40 138.75 205.28 140.00 205.00
C 140.00 209.00 140.00 213.00 140.00 217.00
M 595.00 361.00 
C 594.04 362.57 592.68 364.25 591.00 365.00
C 558.04 400.87 502.82 384.09 458.00 388.00
C 461.85 376.02 454.64 362.16 441.00 364.00
C 437.27 366.03 439.69 356.65 439.00 354.00 C 439.00 349.00 439.00 344.00 439.00 339.00
C 439.00 332.33 439.00 325.67 439.00 319.00
C 439.00 311.67 439.00 304.33 439.00 297.00
C 439.00 292.67 439.00 288.33 439.00 284.00
C 439.65 278.84 437.69 272.34 440.00 268.00
C 446.56 270.33 456.70 265.97 457.00 258.00
C 457.00 254.33 457.00 250.67 457.00 247.00
C 467.02 242.02 482.62 248.73 491.25 238.25 C 500.03 229.50 503.13 217.44 502.00 205.00
C 524.82 208.13 545.08 226.30 549.98 249.02 C 547.98 265.69 568.95 258.52 577.75 267.25 C 610.22 285.44 618.53 332.73 595.00 361.00
M 338.00 314.00 
C 334.46 312.53 331.40 313.40 328.00 314.00
C 321.00 314.00 314.00 314.00 307.00 314.00
C 305.33 314.00 303.67 314.00 302.00 314.00
C 302.00 299.00 302.00 284.00 302.00 269.00
C 303.67 269.00 305.33 269.00 307.00 269.00
C 315.67 269.00 324.33 269.00 333.00 269.00
C 334.00 269.00 335.00 269.00 336.00 269.00
C 342.17 269.12 337.59 283.35 339.00 289.00 C 338.34 297.17 340.33 306.66 338.00 314.00
M 523.00 421.00 
C 522.34 429.50 524.33 439.33 522.00 447.00
C 520.68 467.23 503.09 485.01 483.00 487.00
C 375.40 488.67 264.53 488.67 157.00 487.00
C 150.48 486.71 144.99 483.01 139.00 481.00
C 135.52 478.24 131.38 475.93 129.00 472.00
C 117.43 457.07 117.40 437.76 118.00 419.00
C 120.43 416.87 124.82 418.53 128.00 418.00
C 131.33 418.00 134.67 418.00 138.00 418.00
C 260.00 418.00 382.00 418.00 504.00 418.00
C 509.67 418.00 515.33 418.00 521.00 418.00
C 522.29 418.44 523.21 419.58 523.00 421.00
M 358.00 518.00 
C 357.85 522.20 358.64 526.18 360.00 530.00
C 361.50 531.68 362.19 534.50 362.00 537.00
C 362.80 540.05 363.22 543.25 365.00 546.00
C 336.40 547.66 304.53 547.67 276.00 546.00
C 279.44 537.69 282.38 529.14 283.00 520.00
C 283.14 510.36 297.60 516.92 304.00 515.00 C 322.00 515.00 340.00 515.00 358.00 515.00
C 358.00 516.00 358.00 517.00 358.00 518.00
M 386.00 580.00 
C 346.07 581.67 302.86 581.67 263.00 580.00
C 259.67 580.00 256.33 580.00 253.00 580.00
C 254.97 575.50 263.03 572.76 262.00 568.00
C 296.17 565.68 331.42 567.66 366.00 567.00 C 377.25 563.63 382.76 572.76 389.00 580.00
C 388.00 580.00 387.00 580.00 386.00 580.00 Z"/>
</g>
<g fill="None" fill-opacity="0.0" stroke="#7E8A90" stroke-opacity="0.89" stroke-width="0.3"><path d="
M 491.00 176.00 
C 488.56 172.69 485.30 169.54 482.00 167.00
C 484.44 170.31 487.70 173.46 491.00 176.00 Z"/>
</g>
<g fill="None" fill-opacity="0.0" stroke="#9AA7AB" stroke-opacity="0.72" stroke-width="0.3"><path d="
M 144.00 177.00 
C 146.36 176.70 150.02 178.03 151.00 175.00
C 149.09 176.93 145.53 174.93 144.00 177.00 Z"/>
</g>
<g fill="None" fill-opacity="0.0" stroke="#11232E" stroke-opacity="1.00" stroke-width="0.3"><path d="
M 287.00 179.00 
C 266.05 178.98 279.24 203.02 291.25 208.75 C 305.20 218.17 323.98 219.13 339.77 213.77 C 351.88 208.20 368.13 196.47 363.25 182.75 C 349.35 170.89 342.12 201.05 326.02 198.02 C 310.42 201.46 295.73 191.71 287.00 179.00 Z"/>
</g>
<g fill="None" fill-opacity="0.0" stroke="#79868F" stroke-opacity="0.95" stroke-width="0.3"><path d="
M 136.00 206.00 
C 137.00 206.00 138.00 206.00 139.00 206.00
C 139.62 209.50 137.73 214.32 140.00 217.00
C 140.00 213.00 140.00 209.00 140.00 205.00
C 138.75 205.28 136.53 204.40 136.00 206.00 Z"/>
</g>
<g fill="None" fill-opacity="0.0" stroke="#000000" stroke-opacity="0.00" stroke-width="0.3"><path d="
M 457.00 247.00 
C 458.56 249.61 458.72 255.46 457.00 258.00
C 456.70 265.97 446.56 270.33 440.00 268.00
C 440.00 273.33 440.00 278.67 440.00 284.00
C 440.00 288.33 440.00 292.67 440.00 297.00
C 439.34 304.16 441.33 312.66 439.00 319.00
C 439.00 325.67 439.00 332.33 439.00 339.00
C 441.96 346.26 438.03 356.81 441.00 364.00
C 454.64 362.16 461.85 376.02 458.00 388.00
C 502.82 384.09 558.04 400.87 591.00 365.00
C 591.96 363.43 593.32 361.75 595.00 361.00
C 618.53 332.73 610.22 285.44 577.75 267.25 C 568.95 258.52 547.98 265.69 549.98 249.02 C 545.08 226.30 524.82 208.13 502.00 205.00
C 503.13 217.44 500.03 229.50 491.25 238.25 C 482.62 248.73 467.02 242.02 457.00 247.00 Z"/>
</g>
<g fill="None" fill-opacity="0.0" stroke="#000000" stroke-opacity="0.00" stroke-width="0.3"><path d="
M 33.00 317.00 
C 33.00 320.33 33.00 323.67 33.00 327.00
C 33.67 340.12 40.10 351.48 47.00 362.00
C 50.64 364.87 54.23 368.36 57.00 372.00
C 67.87 379.46 79.85 385.35 93.00 387.00
C 95.52 387.56 99.30 385.81 101.00 388.00
C 127.00 388.00 153.00 388.00 179.00 388.00
C 179.47 386.02 182.60 388.11 183.00 386.00
C 180.19 374.63 186.74 361.18 200.00 364.00
C 202.33 332.90 200.33 299.85 201.00 268.00
C 194.06 271.02 183.39 265.35 184.00 257.00
C 182.46 254.72 182.28 249.21 184.00 247.00
C 176.68 241.12 160.85 249.63 153.23 240.77 C 145.45 235.55 140.27 226.31 140.00 217.00
C 137.73 214.32 139.62 209.50 139.00 206.00
C 138.00 206.00 137.00 206.00 136.00 206.00
C 110.42 209.96 91.13 234.80 90.00 260.00
C 59.39 259.82 34.99 287.75 33.00 317.00 Z"/>
</g>
<g fill="None" fill-opacity="0.0" stroke="#7F8E98" stroke-opacity="0.96" stroke-width="0.3"><path d="
M 414.00 220.00 
C 425.33 220.00 436.67 220.00 448.00 220.00 C 456.40 217.65 476.26 226.30 474.00 212.00
C 471.86 213.38 473.52 216.81 473.00 219.00
C 453.49 219.66 432.76 217.67 414.00 220.00 Z"/>
</g>
<g fill="None" fill-opacity="0.0" stroke="#808F9B" stroke-opacity="0.98" stroke-width="0.3"><path d="
M 227.00 220.00 
C 208.32 217.67 187.50 219.67 168.00 219.00
C 167.66 217.44 168.75 214.83 167.00 214.00
C 167.31 225.93 185.80 217.46 194.00 220.00 C 205.00 220.00 216.00 220.00 227.00 220.00 Z"/>
</g>
<g fill="None" fill-opacity="0.0" stroke="#63737C" stroke-opacity="0.96" stroke-width="0.3"><path d="
M 239.00 241.00 
C 238.73 239.53 237.00 240.11 236.00 240.00
C 235.43 236.16 237.19 231.09 235.00 228.00
C 235.00 232.33 235.00 236.67 235.00 241.00
C 236.33 241.00 237.67 241.00 239.00 241.00 Z"/>
</g>
<g fill="None" fill-opacity="0.0" stroke="#4A565B" stroke-opacity="1.00" stroke-width="0.3"><path d="
M 325.00 242.00 
C 321.67 242.00 318.33 242.00 315.00 242.00
C 317.21 243.72 322.72 243.54 325.00 242.00 Z"/>
</g>
<g fill="None" fill-opacity="0.0" stroke="#7A868D" stroke-opacity="1.00" stroke-width="0.3"><path d="
M 184.00 257.00 
C 184.00 253.67 184.00 250.33 184.00 247.00
C 182.28 249.21 182.46 254.72 184.00 257.00 Z"/>
</g>
<g fill="None" fill-opacity="0.0" stroke="#687578" stroke-opacity="0.89" stroke-width="0.3"><path d="
M 457.00 258.00 
C 458.72 255.46 458.56 249.61 457.00 247.00
C 457.00 250.67 457.00 254.33 457.00 258.00 Z"/>
</g>
<g fill="None" fill-opacity="0.0" stroke="#2D3B43" stroke-opacity="1.00" stroke-width="0.3"><path d="
M 275.00 383.00 
C 277.33 339.32 275.33 293.50 276.00 249.00
C 273.67 292.68 275.67 338.50 275.00 383.00 Z"/>
</g>
<g fill="None" fill-opacity="0.0" stroke="#869197" stroke-opacity="0.86" stroke-width="0.3"><path d="
M 26.00 262.00 
C 29.64 259.23 33.13 255.64 36.00 252.00
C 32.36 254.77 28.87 258.36 26.00 262.00 Z"/>
</g>
<g fill="None" fill-opacity="0.0" stroke="#8D999F" stroke-opacity="0.98" stroke-width="0.3"><path d="
M 200.00 364.00 
C 204.31 364.06 200.93 351.76 202.00 347.00 C 201.33 320.82 203.33 293.43 201.00 268.00
C 200.33 299.85 202.33 332.90 200.00 364.00 Z"/>
</g>
<g fill="None" fill-opacity="0.0" stroke="#323E48" stroke-opacity="1.00" stroke-width="0.3"><path d="
M 336.00 269.00 
C 340.50 273.10 336.79 283.48 338.00 290.00 C 338.00 298.00 338.00 306.00 338.00 314.00
C 340.33 306.66 338.34 297.17 339.00 289.00 C 337.59 283.35 342.17 269.12 336.00 269.00 Z"/>
</g>
<g fill="None" fill-opacity="0.0" stroke="#9BA8B0" stroke-opacity="0.78" stroke-width="0.3"><path d="
M 439.00 284.00 
C 439.00 283.96 440.00 284.00 440.00 284.00
C 440.00 278.67 440.00 273.33 440.00 268.00
C 437.69 272.34 439.65 278.84 439.00 284.00 Z"/>
</g>
<g fill="None" fill-opacity="0.0" stroke="#000000" stroke-opacity="0.00" stroke-width="0.3"><path d="
M 307.00 314.00 
C 312.92 312.37 322.15 312.31 328.00 314.00
C 331.40 313.40 334.46 312.53 338.00 314.00
C 338.00 306.00 338.00 298.00 338.00 290.00 C 336.79 283.48 340.50 273.10 336.00 269.00
C 335.00 269.00 334.00 269.00 333.00 269.00
C 325.41 270.65 314.52 270.68 307.00 269.00
C 305.33 269.00 303.67 269.00 302.00 269.00
C 302.00 284.00 302.00 299.00 302.00 314.00
C 303.67 314.00 305.33 314.00 307.00 314.00 Z"/>
</g>
<g fill="None" fill-opacity="0.0" stroke="#768690" stroke-opacity="0.95" stroke-width="0.3"><path d="
M 333.00 269.00 
C 324.33 269.00 315.67 269.00 307.00 269.00
C 314.52 270.68 325.41 270.65 333.00 269.00 Z"/>
</g>
<g fill="None" fill-opacity="0.0" stroke="#3C4B4E" stroke-opacity="1.00" stroke-width="0.3"><path d="
M 231.00 385.00 
C 231.00 349.67 231.00 314.33 231.00 279.00
C 229.33 313.19 229.33 350.73 231.00 385.00 Z"/>
</g>
<g fill="None" fill-opacity="0.0" stroke="#47535C" stroke-opacity="1.00" stroke-width="0.3"><path d="
M 410.00 388.00 
C 411.67 352.81 411.67 314.27 410.00 279.00
C 410.00 315.33 410.00 351.67 410.00 388.00 Z"/>
</g>
<g fill="None" fill-opacity="0.0" stroke="#A9B6BD" stroke-opacity="0.57" stroke-width="0.3"><path d="
M 439.00 297.00 
C 439.00 296.96 440.00 297.00 440.00 297.00
C 440.00 292.67 440.00 288.33 440.00 284.00
C 440.00 284.00 439.00 283.96 439.00 284.00
C 439.00 288.33 439.00 292.67 439.00 297.00 Z"/>
</g>
<g fill="None" fill-opacity="0.0" stroke="#B7BEC2" stroke-opacity="0.15" stroke-width="0.3"><path d="
M 439.00 319.00 
C 441.33 312.66 439.34 304.16 440.00 297.00
C 440.00 297.00 439.00 296.96 439.00 297.00
C 439.00 304.33 439.00 311.67 439.00 319.00 Z"/>
</g>
<g fill="None" fill-opacity="0.0" stroke="#B4C0C4" stroke-opacity="0.15" stroke-width="0.3"><path d="
M 307.00 314.00 
C 314.00 314.00 321.00 314.00 328.00 314.00
C 322.15 312.31 312.92 312.37 307.00 314.00 Z"/>
</g>
<g fill="None" fill-opacity="0.0" stroke="#616D73" stroke-opacity="0.97" stroke-width="0.3"><path d="
M 637.00 331.00 
C 638.69 326.15 638.62 317.92 637.00 313.00
C 637.00 319.00 637.00 325.00 637.00 331.00 Z"/>
</g>
<g fill="None" fill-opacity="0.0" stroke="#697882" stroke-opacity="1.00" stroke-width="0.3"><path d="
M 33.00 327.00 
C 33.00 323.67 33.00 320.33 33.00 317.00
C 31.28 319.21 31.46 324.72 33.00 327.00 Z"/>
</g>
<g fill="None" fill-opacity="0.0" stroke="#A6B3BC" stroke-opacity="0.51" stroke-width="0.3"><path d="
M 441.00 364.00 
C 438.03 356.81 441.96 346.26 439.00 339.00
C 439.00 344.00 439.00 349.00 439.00 354.00 C 439.69 356.65 437.27 366.03 441.00 364.00 Z"/>
</g>
<g fill="None" fill-opacity="0.0" stroke="#8E9CA4" stroke-opacity="0.88" stroke-width="0.3"><path d="
M 591.00 365.00 
C 592.68 364.25 594.04 362.57 595.00 361.00
C 593.32 361.75 591.96 363.43 591.00 365.00 Z"/>
</g>
<g fill="None" fill-opacity="0.0" stroke="#6D7D87" stroke-opacity="1.00" stroke-width="0.3"><path d="
M 57.00 372.00 
C 54.23 368.36 50.64 364.87 47.00 362.00
C 49.77 365.64 53.36 369.13 57.00 372.00 Z"/>
</g>
<g fill="None" fill-opacity="0.0" stroke="#94A3AD" stroke-opacity="0.95" stroke-width="0.3"><path d="
M 366.00 388.00 
C 365.38 382.49 367.26 375.75 365.00 371.00
C 365.62 376.51 363.74 383.25 366.00 388.00 Z"/>
</g>
<g fill="None" fill-opacity="0.0" stroke="#93A2AA" stroke-opacity="0.61" stroke-width="0.3"><path d="
M 179.00 388.00 
C 180.45 388.17 185.79 388.23 183.00 386.00
C 182.60 388.11 179.47 386.02 179.00 388.00 Z"/>
</g>
<g fill="None" fill-opacity="0.0" stroke="#87959E" stroke-opacity="0.80" stroke-width="0.3"><path d="
M 101.00 388.00 
C 99.30 385.81 95.52 387.56 93.00 387.00
C 94.70 389.19 98.48 387.44 101.00 388.00 Z"/>
</g>
<g fill="None" fill-opacity="0.0" stroke="#3F4B55" stroke-opacity="1.00" stroke-width="0.3"><path d="
M 91.00 452.00 
C 90.34 439.82 92.32 426.43 90.00 415.00
C 90.66 427.18 88.68 440.57 91.00 452.00 Z"/>
</g>
<g fill="None" fill-opacity="0.0" stroke="#97A7B2" stroke-opacity="0.95" stroke-width="0.3"><path d="
M 118.00 419.00 
C 121.33 419.00 124.67 419.00 128.00 419.00
C 127.96 419.00 128.00 418.00 128.00 418.00
C 124.82 418.53 120.43 416.87 118.00 419.00 Z"/>
</g>
<g fill="None" fill-opacity="0.0" stroke="#ACBCC9" stroke-opacity="0.33" stroke-width="0.3"><path d="
M 128.00 419.00 
C 131.17 418.39 135.65 420.25 138.00 418.00
C 134.67 418.00 131.33 418.00 128.00 418.00
C 128.00 418.00 127.96 419.00 128.00 419.00 Z"/>
</g>
<g fill="None" fill-opacity="0.0" stroke="#000000" stroke-opacity="0.00" stroke-width="0.3"><path d="
M 128.00 419.00 
C 124.67 419.00 121.33 419.00 118.00 419.00
C 117.40 437.76 117.43 457.07 129.00 472.00
C 132.23 475.20 136.49 477.24 139.00 481.00
C 144.99 483.01 150.48 486.71 157.00 487.00
C 265.67 487.00 374.33 487.00 483.00 487.00
C 503.09 485.01 520.68 467.23 522.00 447.00
C 522.66 438.50 520.67 428.67 523.00 421.00
C 523.21 419.58 522.29 418.44 521.00 418.00
C 516.41 419.62 508.52 419.70 504.00 418.00
C 382.00 418.00 260.00 418.00 138.00 418.00
C 135.65 420.25 131.17 418.39 128.00 419.00
M 305.00 442.00 
C 318.48 447.76 311.83 469.26 297.00 465.00 C 282.31 461.35 289.61 436.47 305.00 442.00
M 336.00 465.00 
C 333.36 464.84 331.38 461.98 330.00 460.00
C 323.67 447.58 337.91 438.35 346.25 443.19 C 358.19 449.39 349.56 469.98 336.00 465.00 Z"/>
</g>
<g fill="None" fill-opacity="0.0" stroke="#ABBBCA" stroke-opacity="0.33" stroke-width="0.3"><path d="
M 521.00 418.00 
C 515.33 418.00 509.67 418.00 504.00 418.00
C 508.52 419.70 516.41 419.62 521.00 418.00 Z"/>
</g>
<g fill="None" fill-opacity="0.0" stroke="#A9B7C4" stroke-opacity="0.40" stroke-width="0.3"><path d="
M 522.00 447.00 
C 524.33 439.33 522.34 429.50 523.00 421.00
C 520.67 428.67 522.66 438.50 522.00 447.00 Z"/>
</g>
<g fill="None" fill-opacity="0.0" stroke="#132430" stroke-opacity="0.99" stroke-width="0.3"><path d="
M 305.00 442.00 
C 289.61 436.47 282.31 461.35 297.00 465.00 C 311.83 469.26 318.48 447.76 305.00 442.00 Z"/>
</g>
<g fill="None" fill-opacity="0.0" stroke="#122530" stroke-opacity="0.99" stroke-width="0.3"><path d="
M 330.00 460.00 
C 332.15 461.49 334.14 463.52 336.00 465.00
C 349.56 469.98 358.19 449.39 346.25 443.19 C 337.91 438.35 323.67 447.58 330.00 460.00 Z"/>
</g>
<g fill="None" fill-opacity="0.0" stroke="#83929B" stroke-opacity="0.82" stroke-width="0.3"><path d="
M 336.00 465.00 
C 334.14 463.52 332.15 461.49 330.00 460.00
C 331.38 461.98 333.36 464.84 336.00 465.00 Z"/>
</g>
<g fill="None" fill-opacity="0.0" stroke="#76828A" stroke-opacity="0.80" stroke-width="0.3"><path d="
M 139.00 481.00 
C 136.49 477.24 132.23 475.20 129.00 472.00
C 131.38 475.93 135.52 478.24 139.00 481.00 Z"/>
</g>
<g fill="None" fill-opacity="0.0" stroke="#6B7C84" stroke-opacity="1.00" stroke-width="0.3"><path d="
M 483.00 487.00 
C 374.33 487.00 265.67 487.00 157.00 487.00
C 264.53 488.67 375.40 488.67 483.00 487.00 Z"/>
</g>
<g fill="None" fill-opacity="0.0" stroke="#7B888F" stroke-opacity="0.91" stroke-width="0.3"><path d="
M 116.00 499.00 
C 113.56 495.69 110.30 492.54 107.00 490.00
C 109.44 493.31 112.70 496.46 116.00 499.00 Z"/>
</g>
<g fill="None" fill-opacity="0.0" stroke="#68757A" stroke-opacity="0.94" stroke-width="0.3"><path d="
M 525.00 499.00 
C 528.31 496.56 531.46 493.30 534.00 490.00
C 530.69 492.44 527.54 495.70 525.00 499.00 Z"/>
</g>
<g fill="None" fill-opacity="0.0" stroke="#8E9AA1" stroke-opacity="1.00" stroke-width="0.3"><path d="
M 243.00 516.00 
C 242.96 516.00 243.00 515.00 243.00 515.00
C 213.67 515.00 184.33 515.00 155.00 515.00
C 183.35 517.33 213.83 515.33 243.00 516.00 Z"/>
</g>
<g fill="None" fill-opacity="0.0" stroke="#A2AFB5" stroke-opacity="0.84" stroke-width="0.3"><path d="
M 243.00 516.00 
C 247.33 516.00 251.67 516.00 256.00 516.00
C 252.66 513.71 247.17 515.64 243.00 515.00
C 243.00 515.00 242.96 516.00 243.00 516.00 Z"/>
</g>
<g fill="None" fill-opacity="0.0" stroke="#7C8C97" stroke-opacity="0.98" stroke-width="0.3"><path d="
M 283.00 520.00 
C 284.60 519.47 283.72 517.25 284.00 516.00
C 296.67 516.00 309.33 516.00 322.00 516.00 C 333.69 517.26 348.03 513.44 358.00 518.00
C 358.00 517.00 358.00 516.00 358.00 515.00
C 340.00 515.00 322.00 515.00 304.00 515.00 C 297.60 516.92 283.14 510.36 283.00 520.00 Z"/>
</g>
<g fill="None" fill-opacity="0.0" stroke="#8F9CA3" stroke-opacity="0.96" stroke-width="0.3"><path d="
M 485.00 515.00 
C 453.33 515.00 421.67 515.00 390.00 515.00
C 420.53 516.67 454.40 516.67 485.00 515.00 Z"/>
</g>
<g fill="None" fill-opacity="0.0" stroke="#000000" stroke-opacity="0.00" stroke-width="0.3"><path d="
M 283.00 520.00 
C 282.38 529.14 279.44 537.69 276.00 546.00
C 305.67 546.00 335.33 546.00 365.00 546.00
C 363.22 543.25 362.80 540.05 362.00 537.00
C 360.67 535.27 360.25 532.38 360.00 530.00
C 358.64 526.18 357.85 522.20 358.00 518.00
C 348.03 513.44 333.69 517.26 322.00 516.00 C 309.33 516.00 296.67 516.00 284.00 516.00
C 283.72 517.25 284.60 519.47 283.00 520.00 Z"/>
</g>
<g fill="None" fill-opacity="0.0" stroke="#859099" stroke-opacity="0.74" stroke-width="0.3"><path d="
M 362.00 537.00 
C 362.19 534.50 361.50 531.68 360.00 530.00
C 360.25 532.38 360.67 535.27 362.00 537.00 Z"/>
</g>
<g fill="None" fill-opacity="0.0" stroke="#56646F" stroke-opacity="1.00" stroke-width="0.3"><path d="
M 365.00 546.00 
C 335.33 546.00 305.67 546.00 276.00 546.00
C 304.53 547.67 336.40 547.66 365.00 546.00 Z"/>
</g>
<g fill="None" fill-opacity="0.0" stroke="#536066" stroke-opacity="0.91" stroke-width="0.3"><path d="
M 227.00 573.00 
C 232.69 568.69 237.44 563.01 241.00 557.00
C 236.09 561.84 232.11 567.91 227.00 573.00 Z"/>
</g>
<g fill="None" fill-opacity="0.0" stroke="#000000" stroke-opacity="0.00" stroke-width="0.3"><path d="
M 263.00 580.00 
C 304.00 580.00 345.00 580.00 386.00 580.00
C 387.00 580.00 388.00 580.00 389.00 580.00
C 382.76 572.76 377.25 563.63 366.00 567.00 C 331.42 567.66 296.17 565.68 262.00 568.00
C 263.03 572.76 254.97 575.50 253.00 580.00
C 256.33 580.00 259.67 580.00 263.00 580.00 Z"/>
</g>
<g fill="None" fill-opacity="0.0" stroke="#28353D" stroke-opacity="1.00" stroke-width="0.3"><path d="
M 386.00 580.00 
C 345.00 580.00 304.00 580.00 263.00 580.00
C 302.86 581.67 346.07 581.67 386.00 580.00 Z"/>
</g>
<g fill="None" fill-opacity="0.0" stroke="#758288" stroke-opacity="0.86" stroke-width="0.3"><path d="
M 207.00 588.00 
C 209.71 585.82 212.66 583.38 215.00 581.00
C 211.70 582.26 209.05 585.09 207.00 588.00 Z"/>
</g>
<g fill="None" fill-opacity="0.0" stroke="#415454" stroke-opacity="1.00" stroke-width="0.3"><path d="
M 424.00 608.00 
C 354.67 608.00 285.33 608.00 216.00 608.00
C 284.20 609.67 355.73 609.67 424.00 608.00 Z"/>
</g>
<g fill="#000000" fill-opacity="0.00" stroke="None">
<path d="
M 0.00 612.00 
L 641.00 612.00
L 641.00 0.00
L 0.00 0.00
L 0.00 612.00
M 474.00 144.00 
C 470.58 146.21 465.18 144.42 461.00 145.00
C 447.83 144.33 433.34 146.33 421.00 144.00
C 388.63 125.93 357.66 101.43 327.25 81.75 C 316.31 70.82 305.92 89.38 295.00 93.00
C 294.02 95.01 291.64 95.64 290.00 97.00
C 279.70 103.22 270.45 111.44 260.00 117.00
C 259.07 119.17 256.95 120.11 255.00 121.00
C 243.05 128.80 232.03 138.43 219.00 144.00
C 201.74 145.66 181.19 145.67 164.00 144.00
C 147.61 143.07 147.67 118.71 162.70 114.70 C 204.51 84.38 246.54 54.42 288.70 24.70 C 300.01 18.68 309.53 4.26 323.07 5.93 C 375.51 40.47 428.35 79.09 480.75 116.25 C 494.52 120.64 491.42 146.84 474.00 144.00
M 297.00 130.00 
C 316.69 133.80 313.35 167.09 291.00 164.00 C 267.78 162.49 274.94 125.65 297.00 130.00
M 350.00 130.00 
C 370.85 133.86 366.64 168.70 344.00 164.00 C 322.00 161.35 328.57 126.40 350.00 130.00
M 220.00 159.00 
C 232.51 160.77 231.03 181.66 217.00 180.00 C 193.38 175.77 161.72 185.47 167.00 214.00
C 168.75 214.83 167.66 217.44 168.00 219.00
C 187.50 219.67 208.32 217.67 227.00 220.00
C 230.77 220.00 235.04 224.21 235.00 228.00
C 237.19 231.09 235.43 236.16 236.00 240.00
C 237.00 240.11 238.73 239.53 239.00 241.00
C 256.54 244.97 247.39 274.20 231.00 268.00
C 231.00 271.67 231.00 275.33 231.00 279.00
C 231.00 314.33 231.00 349.67 231.00 385.00
C 231.00 386.00 231.00 387.00 231.00 388.00
C 239.00 388.00 247.00 388.00 255.00 388.00 C 261.15 386.16 275.07 392.52 275.00 383.00
C 275.67 338.50 273.67 292.68 276.00 249.00
C 275.57 241.46 284.95 231.92 292.08 236.92 C 299.92 240.43 305.08 241.18 315.00 242.00
C 318.33 242.00 321.67 242.00 325.00 242.00
C 337.22 244.33 349.80 229.91 359.75 239.25 C 370.15 249.60 363.49 264.74 365.00 278.00 C 365.00 309.00 365.00 340.00 365.00 371.00
C 367.26 375.75 365.38 382.49 366.00 388.00
C 380.67 388.00 395.33 388.00 410.00 388.00
C 410.00 351.67 410.00 315.33 410.00 279.00
C 410.00 275.33 410.00 271.67 410.00 268.00
C 391.28 274.57 384.96 240.97 405.00 240.00
C 404.57 232.44 403.62 220.26 414.00 220.00
C 432.76 217.67 453.49 219.66 473.00 219.00
C 473.52 216.81 471.86 213.38 474.00 212.00
C 477.22 183.79 445.42 176.28 423.00 180.00 C 409.92 181.78 407.23 160.06 420.00 159.00
C 433.93 157.34 451.14 157.33 465.00 159.00
C 471.63 159.01 476.67 163.66 482.00 167.00
C 485.30 169.54 488.56 172.69 491.00 176.00
C 525.99 174.83 562.80 197.19 575.78 231.22 C 580.66 241.37 596.41 241.78 604.23 250.77 C 622.70 267.15 635.99 288.50 637.00 313.00
C 638.62 317.92 638.69 326.15 637.00 331.00
C 633.82 373.53 595.20 411.78 551.00 415.00
C 551.74 441.60 552.91 469.98 534.00 490.00
C 531.46 493.30 528.31 496.56 525.00 499.00
C 513.49 508.16 499.87 514.53 485.00 515.00
C 454.40 516.67 420.53 516.67 390.00 515.00
C 388.16 515.20 386.72 516.54 385.00 515.00
C 389.14 540.04 401.04 566.17 424.23 579.77 C 437.87 583.72 440.24 606.97 424.00 608.00
C 355.73 609.67 284.20 609.67 216.00 608.00
C 206.63 607.61 203.87 595.29 207.00 588.00
C 209.05 585.09 211.70 582.26 215.00 581.00
C 219.30 578.78 222.50 574.51 227.00 573.00
C 232.11 567.91 236.09 561.84 241.00 557.00
C 247.43 544.02 253.51 530.47 256.00 516.00
C 251.67 516.00 247.33 516.00 243.00 516.00
C 213.83 515.33 183.35 517.33 155.00 515.00
C 140.53 514.59 127.19 507.81 116.00 499.00
C 112.70 496.46 109.44 493.31 107.00 490.00
C 97.96 479.18 91.49 466.25 91.00 452.00
C 88.68 440.57 90.66 427.18 90.00 415.00
C 18.13 411.74 -25.55 314.92 26.00 262.00
C 28.87 258.36 32.36 254.77 36.00 252.00
C 46.03 239.82 66.21 241.04 68.78 223.78 C 83.69 196.17 113.68 176.15 144.00 177.00
C 145.53 174.93 149.09 176.93 151.00 175.00
C 157.08 167.57 164.58 160.51 174.00 159.00
C 188.26 157.34 205.81 157.33 220.00 159.00
M 287.00 179.00 
C 295.73 191.71 310.42 201.46 326.02 198.02 C 342.12 201.05 349.35 170.89 363.25 182.75 C 368.13 196.47 351.88 208.20 339.77 213.77 C 323.98 219.13 305.20 218.17 291.25 208.75 C 279.24 203.02 266.05 178.98 287.00 179.00 Z"/>
</g>
<g fill="#0E212D" fill-opacity="1.00" stroke="None">
<path d="
M 164.00 144.00 
C 182.33 144.00 200.67 144.00 219.00 144.00
C 232.03 138.43 243.05 128.80 255.00 121.00
C 255.98 118.99 258.36 118.36 260.00 117.00
C 270.45 111.44 279.70 103.22 290.00 97.00
C 290.93 94.83 293.05 93.89 295.00 93.00
C 305.92 89.38 316.31 70.82 327.25 81.75 C 357.66 101.43 388.63 125.93 421.00 144.00
C 434.33 144.00 447.67 144.00 461.00 144.00
C 465.33 144.00 469.67 144.00 474.00 144.00
C 491.42 146.84 494.52 120.64 480.75 116.25 C 428.35 79.09 375.51 40.47 323.07 5.93 C 309.53 4.26 300.01 18.68 288.70 24.70 C 246.54 54.42 204.51 84.38 162.70 114.70 C 147.67 118.71 147.61 143.07 164.00 144.00
M 447.00 123.00 
C 447.83 123.41 448.87 123.97 449.00 125.00
C 445.00 125.00 441.00 125.00 437.00 125.00
C 434.65 124.74 430.93 126.03 430.00 123.00
C 392.15 98.65 357.86 71.59 319.98 49.02 C 283.05 71.31 247.15 99.50 210.00 124.00
C 206.13 125.19 192.80 126.71 193.00 123.00
C 235.04 96.10 277.30 63.59 320.00 35.00
C 362.64 63.88 404.60 94.11 447.00 123.00 Z"/>
</g>
<g fill="#000000" fill-opacity="0.00" stroke="None">
<path d="
M 193.00 123.00 
C 197.75 125.26 204.49 123.38 210.00 124.00
C 247.15 99.50 283.05 71.31 319.98 49.02 C 357.86 71.59 392.15 98.65 430.00 123.00
C 431.97 124.59 434.66 123.80 437.00 124.00
C 440.17 123.39 444.65 125.25 447.00 123.00
C 404.60 94.11 362.64 63.88 320.00 35.00
C 277.30 63.59 235.04 96.10 193.00 123.00 Z"/>
</g>
<g fill="#88949C" fill-opacity="0.68" stroke="None">
<path d="
M 290.00 97.00 
C 291.64 95.64 294.02 95.01 295.00 93.00
C 293.05 93.89 290.93 94.83 290.00 97.00 Z"/>
</g>
<g fill="#8797A1" fill-opacity="0.83" stroke="None">
<path d="
M 255.00 121.00 
C 256.95 120.11 259.07 119.17 260.00 117.00
C 258.36 118.36 255.98 118.99 255.00 121.00 Z"/>
</g>
<g fill="#626E75" fill-opacity="1.00" stroke="None">
<path d="
M 210.00 124.00 
C 204.49 123.38 197.75 125.26 193.00 123.00
C 192.80 126.71 206.13 125.19 210.00 124.00 Z"/>
</g>
<g fill="#A0ADB0" fill-opacity="0.38" stroke="None">
<path d="
M 437.00 125.00 
C 436.96 125.00 437.00 124.00 437.00 124.00
C 434.66 123.80 431.97 124.59 430.00 123.00
C 430.93 126.03 434.65 124.74 437.00 125.00 Z"/>
</g>
<g fill="#8D9CA3" fill-opacity="0.95" stroke="None">
<path d="
M 437.00 124.00 
C 437.00 124.00 436.96 125.00 437.00 125.00
C 441.00 125.00 445.00 125.00 449.00 125.00
C 448.87 123.97 447.83 123.41 447.00 123.00
C 444.65 125.25 440.17 123.39 437.00 124.00 Z"/>
</g>
<g fill="#12242F" fill-opacity="0.99" stroke="None">
<path d="
M 297.00 130.00 
C 274.94 125.65 267.78 162.49 291.00 164.00 C 313.35 167.09 316.69 133.80 297.00 130.00 Z"/>
</g>
<g fill="#112330" fill-opacity="1.00" stroke="None">
<path d="
M 350.00 130.00 
C 328.57 126.40 322.00 161.35 344.00 164.00 C 366.64 168.70 370.85 133.86 350.00 130.00 Z"/>
</g>
<g fill="#8F9DA2" fill-opacity="1.00" stroke="None">
<path d="
M 219.00 144.00 
C 200.67 144.00 182.33 144.00 164.00 144.00
C 181.19 145.67 201.74 145.66 219.00 144.00 Z"/>
</g>
<g fill="#849398" fill-opacity="1.00" stroke="None">
<path d="
M 461.00 145.00 
C 460.96 145.00 461.00 144.00 461.00 144.00
C 447.67 144.00 434.33 144.00 421.00 144.00
C 433.34 146.33 447.83 144.33 461.00 145.00 Z"/>
</g>
<g fill="#B1BBC1" fill-opacity="0.34" stroke="None">
<path d="
M 461.00 145.00 
C 465.18 144.42 470.58 146.21 474.00 144.00
C 469.67 144.00 465.33 144.00 461.00 144.00
C 461.00 144.00 460.96 145.00 461.00 145.00 Z"/>
</g>
<g fill="#687478" fill-opacity="0.98" stroke="None">
<path d="
M 174.00 159.00 
C 189.33 159.00 204.67 159.00 220.00 159.00
C 205.81 157.33 188.26 157.34 174.00 159.00 Z"/>
</g>
<g fill="#6C787D" fill-opacity="0.98" stroke="None">
<path d="
M 420.00 159.00 
C 435.00 159.00 450.00 159.00 465.00 159.00
C 451.14 157.33 433.93 157.34 420.00 159.00 Z"/>
</g>
<g fill="#0C1F2C" fill-opacity="1.00" stroke="None">
<path d="
M 151.00 175.00 
C 150.02 178.03 146.36 176.70 144.00 177.00
C 113.68 176.15 83.69 196.17 68.78 223.78 C 66.21 241.04 46.03 239.82 36.00 252.00
C 33.13 255.64 29.64 259.23 26.00 262.00
C -25.55 314.92 18.13 411.74 90.00 415.00
C 92.32 426.43 90.34 439.82 91.00 452.00
C 91.49 466.25 97.96 479.18 107.00 490.00
C 110.30 492.54 113.56 495.69 116.00 499.00
C 127.19 507.81 140.53 514.59 155.00 515.00
C 184.33 515.00 213.67 515.00 243.00 515.00
C 247.17 515.64 252.66 513.71 256.00 516.00
C 253.51 530.47 247.43 544.02 241.00 557.00
C 237.44 563.01 232.69 568.69 227.00 573.00
C 222.50 574.51 219.30 578.78 215.00 581.00
C 212.66 583.38 209.71 585.82 207.00 588.00
C 203.87 595.29 206.63 607.61 216.00 608.00
C 285.33 608.00 354.67 608.00 424.00 608.00
C 440.24 606.97 437.87 583.72 424.23 579.77 C 401.04 566.17 389.14 540.04 385.00 515.00
C 386.72 516.54 388.16 515.20 390.00 515.00
C 421.67 515.00 453.33 515.00 485.00 515.00
C 499.87 514.53 513.49 508.16 525.00 499.00
C 527.54 495.70 530.69 492.44 534.00 490.00
C 552.91 469.98 551.74 441.60 551.00 415.00
C 595.20 411.78 633.82 373.53 637.00 331.00
C 637.00 325.00 637.00 319.00 637.00 313.00
C 635.99 288.50 622.70 267.15 604.23 250.77 C 596.41 241.78 580.66 241.37 575.78 231.22 C 562.80 197.19 525.99 174.83 491.00 176.00
C 487.70 173.46 484.44 170.31 482.00 167.00
C 476.67 163.66 471.63 159.01 465.00 159.00
C 450.00 159.00 435.00 159.00 420.00 159.00
C 407.23 160.06 409.92 181.78 423.00 180.00 C 445.42 176.28 477.22 183.79 474.00 212.00
C 476.26 226.30 456.40 217.65 448.00 220.00 C 436.67 220.00 425.33 220.00 414.00 220.00
C 403.62 220.26 404.57 232.44 405.00 240.00
C 384.96 240.97 391.28 274.57 410.00 268.00
C 410.00 271.67 410.00 275.33 410.00 279.00
C 411.67 314.27 411.67 352.81 410.00 388.00
C 395.33 388.00 380.67 388.00 366.00 388.00
C 363.74 383.25 365.62 376.51 365.00 371.00
C 365.00 340.00 365.00 309.00 365.00 278.00 C 363.49 264.74 370.15 249.60 359.75 239.25 C 349.80 229.91 337.22 244.33 325.00 242.00
C 322.72 243.54 317.21 243.72 315.00 242.00
C 305.08 241.18 299.92 240.43 292.08 236.92 C 284.95 231.92 275.57 241.46 276.00 249.00
C 275.33 293.50 277.33 339.32 275.00 383.00
C 275.07 392.52 261.15 386.16 255.00 388.00 C 247.00 388.00 239.00 388.00 231.00 388.00
C 231.00 387.00 231.00 386.00 231.00 385.00
C 229.33 350.73 229.33 313.19 231.00 279.00
C 231.00 275.33 231.00 271.67 231.00 268.00
C 247.39 274.20 256.54 244.97 239.00 241.00
C 237.67 241.00 236.33 241.00 235.00 241.00
C 235.00 236.67 235.00 232.33 235.00 228.00
C 235.04 224.21 230.77 220.00 227.00 220.00
C 216.00 220.00 205.00 220.00 194.00 220.00 C 185.80 217.46 167.31 225.93 167.00 214.00
C 161.72 185.47 193.38 175.77 217.00 180.00 C 231.03 181.66 232.51 160.77 220.00 159.00
C 204.67 159.00 189.33 159.00 174.00 159.00
C 164.58 160.51 157.08 167.57 151.00 175.00
M 140.00 217.00 
C 140.27 226.31 145.45 235.55 153.23 240.77 C 160.85 249.63 176.68 241.12 184.00 247.00
C 184.00 250.33 184.00 253.67 184.00 257.00
C 183.39 265.35 194.06 271.02 201.00 268.00
C 203.33 293.43 201.33 320.82 202.00 347.00 C 200.93 351.76 204.31 364.06 200.00 364.00
C 186.74 361.18 180.19 374.63 183.00 386.00
C 185.79 388.23 180.45 388.17 179.00 388.00
C 153.00 388.00 127.00 388.00 101.00 388.00
C 98.48 387.44 94.70 389.19 93.00 387.00
C 79.85 385.35 67.87 379.46 57.00 372.00
C 53.36 369.13 49.77 365.64 47.00 362.00
C 40.10 351.48 33.67 340.12 33.00 327.00
C 31.46 324.72 31.28 319.21 33.00 317.00
C 34.99 287.75 59.39 259.82 90.00 260.00
C 91.13 234.80 110.42 209.96 136.00 206.00
C 136.53 204.40 138.75 205.28 140.00 205.00
C 140.00 209.00 140.00 213.00 140.00 217.00
M 595.00 361.00 
C 594.04 362.57 592.68 364.25 591.00 365.00
C 558.04 400.87 502.82 384.09 458.00 388.00
C 461.85 376.02 454.64 362.16 441.00 364.00
C 437.27 366.03 439.69 356.65 439.00 354.00 C 439.00 349.00 439.00 344.00 439.00 339.00
C 439.00 332.33 439.00 325.67 439.00 319.00
C 439.00 311.67 439.00 304.33 439.00 297.00
C 439.00 292.67 439.00 288.33 439.00 284.00
C 439.65 278.84 437.69 272.34 440.00 268.00
C 446.56 270.33 456.70 265.97 457.00 258.00
C 457.00 254.33 457.00 250.67 457.00 247.00
C 467.02 242.02 482.62 248.73 491.25 238.25 C 500.03 229.50 503.13 217.44 502.00 205.00
C 524.82 208.13 545.08 226.30 549.98 249.02 C 547.98 265.69 568.95 258.52 577.75 267.25 C 610.22 285.44 618.53 332.73 595.00 361.00
M 338.00 314.00 
C 334.46 312.53 331.40 313.40 328.00 314.00
C 321.00 314.00 314.00 314.00 307.00 314.00
C 305.33 314.00 303.67 314.00 302.00 314.00
C 302.00 299.00 302.00 284.00 302.00 269.00
C 303.67 269.00 305.33 269.00 307.00 269.00
C 315.67 269.00 324.33 269.00 333.00 269.00
C 334.00 269.00 335.00 269.00 336.00 269.00
C 342.17 269.12 337.59 283.35 339.00 289.00 C 338.34 297.17 340.33 306.66 338.00 314.00
M 523.00 421.00 
C 522.34 429.50 524.33 439.33 522.00 447.00
C 520.68 467.23 503.09 485.01 483.00 487.00
C 375.40 488.67 264.53 488.67 157.00 487.00
C 150.48 486.71 144.99 483.01 139.00 481.00
C 135.52 478.24 131.38 475.93 129.00 472.00
C 117.43 457.07 117.40 437.76 118.00 419.00
C 120.43 416.87 124.82 418.53 128.00 418.00
C 131.33 418.00 134.67 418.00 138.00 418.00
C 260.00 418.00 382.00 418.00 504.00 418.00
C 509.67 418.00 515.33 418.00 521.00 418.00
C 522.29 418.44 523.21 419.58 523.00 421.00
M 358.00 518.00 
C 357.85 522.20 358.64 526.18 360.00 530.00
C 361.50 531.68 362.19 534.50 362.00 537.00
C 362.80 540.05 363.22 543.25 365.00 546.00
C 336.40 547.66 304.53 547.67 276.00 546.00
C 279.44 537.69 282.38 529.14 283.00 520.00
C 283.14 510.36 297.60 516.92 304.00 515.00 C 322.00 515.00 340.00 515.00 358.00 515.00
C 358.00 516.00 358.00 517.00 358.00 518.00
M 386.00 580.00 
C 346.07 581.67 302.86 581.67 263.00 580.00
C 259.67 580.00 256.33 580.00 253.00 580.00
C 254.97 575.50 263.03 572.76 262.00 568.00
C 296.17 565.68 331.42 567.66 366.00 567.00 C 377.25 563.63 382.76 572.76 389.00 580.00
C 388.00 580.00 387.00 580.00 386.00 580.00 Z"/>
</g>
<g fill="#7E8A90" fill-opacity="0.89" stroke="None">
<path d="
M 491.00 176.00 
C 488.56 172.69 485.30 169.54 482.00 167.00
C 484.44 170.31 487.70 173.46 491.00 176.00 Z"/>
</g>
<g fill="#9AA7AB" fill-opacity="0.72" stroke="None">
<path d="
M 144.00 177.00 
C 146.36 176.70 150.02 178.03 151.00 175.00
C 149.09 176.93 145.53 174.93 144.00 177.00 Z"/>
</g>
<g fill="#11232E" fill-opacity="1.00" stroke="None">
<path d="
M 287.00 179.00 
C 266.05 178.98 279.24 203.02 291.25 208.75 C 305.20 218.17 323.98 219.13 339.77 213.77 C 351.88 208.20 368.13 196.47 363.25 182.75 C 349.35 170.89 342.12 201.05 326.02 198.02 C 310.42 201.46 295.73 191.71 287.00 179.00 Z"/>
</g>
<g fill="#79868F" fill-opacity="0.95" stroke="None">
<path d="
M 136.00 206.00 
C 137.00 206.00 138.00 206.00 139.00 206.00
C 139.62 209.50 137.73 214.32 140.00 217.00
C 140.00 213.00 140.00 209.00 140.00 205.00
C 138.75 205.28 136.53 204.40 136.00 206.00 Z"/>
</g>
<g fill="#000000" fill-opacity="0.00" stroke="None">
<path d="
M 457.00 247.00 
C 458.56 249.61 458.72 255.46 457.00 258.00
C 456.70 265.97 446.56 270.33 440.00 268.00
C 440.00 273.33 440.00 278.67 440.00 284.00
C 440.00 288.33 440.00 292.67 440.00 297.00
C 439.34 304.16 441.33 312.66 439.00 319.00
C 439.00 325.67 439.00 332.33 439.00 339.00
C 441.96 346.26 438.03 356.81 441.00 364.00
C 454.64 362.16 461.85 376.02 458.00 388.00
C 502.82 384.09 558.04 400.87 591.00 365.00
C 591.96 363.43 593.32 361.75 595.00 361.00
C 618.53 332.73 610.22 285.44 577.75 267.25 C 568.95 258.52 547.98 265.69 549.98 249.02 C 545.08 226.30 524.82 208.13 502.00 205.00
C 503.13 217.44 500.03 229.50 491.25 238.25 C 482.62 248.73 467.02 242.02 457.00 247.00 Z"/>
</g>
<g fill="#000000" fill-opacity="0.00" stroke="None">
<path d="
M 33.00 317.00 
C 33.00 320.33 33.00 323.67 33.00 327.00
C 33.67 340.12 40.10 351.48 47.00 362.00
C 50.64 364.87 54.23 368.36 57.00 372.00
C 67.87 379.46 79.85 385.35 93.00 387.00
C 95.52 387.56 99.30 385.81 101.00 388.00
C 127.00 388.00 153.00 388.00 179.00 388.00
C 179.47 386.02 182.60 388.11 183.00 386.00
C 180.19 374.63 186.74 361.18 200.00 364.00
C 202.33 332.90 200.33 299.85 201.00 268.00
C 194.06 271.02 183.39 265.35 184.00 257.00
C 182.46 254.72 182.28 249.21 184.00 247.00
C 176.68 241.12 160.85 249.63 153.23 240.77 C 145.45 235.55 140.27 226.31 140.00 217.00
C 137.73 214.32 139.62 209.50 139.00 206.00
C 138.00 206.00 137.00 206.00 136.00 206.00
C 110.42 209.96 91.13 234.80 90.00 260.00
C 59.39 259.82 34.99 287.75 33.00 317.00 Z"/>
</g>
<g fill="#7F8E98" fill-opacity="0.96" stroke="None">
<path d="
M 414.00 220.00 
C 425.33 220.00 436.67 220.00 448.00 220.00 C 456.40 217.65 476.26 226.30 474.00 212.00
C 471.86 213.38 473.52 216.81 473.00 219.00
C 453.49 219.66 432.76 217.67 414.00 220.00 Z"/>
</g>
<g fill="#808F9B" fill-opacity="0.98" stroke="None">
<path d="
M 227.00 220.00 
C 208.32 217.67 187.50 219.67 168.00 219.00
C 167.66 217.44 168.75 214.83 167.00 214.00
C 167.31 225.93 185.80 217.46 194.00 220.00 C 205.00 220.00 216.00 220.00 227.00 220.00 Z"/>
</g>
<g fill="#63737C" fill-opacity="0.96" stroke="None">
<path d="
M 239.00 241.00 
C 238.73 239.53 237.00 240.11 236.00 240.00
C 235.43 236.16 237.19 231.09 235.00 228.00
C 235.00 232.33 235.00 236.67 235.00 241.00
C 236.33 241.00 237.67 241.00 239.00 241.00 Z"/>
</g>
<g fill="#4A565B" fill-opacity="1.00" stroke="None">
<path d="
M 325.00 242.00 
C 321.67 242.00 318.33 242.00 315.00 242.00
C 317.21 243.72 322.72 243.54 325.00 242.00 Z"/>
</g>
<g fill="#7A868D" fill-opacity="1.00" stroke="None">
<path d="
M 184.00 257.00 
C 184.00 253.67 184.00 250.33 184.00 247.00
C 182.28 249.21 182.46 254.72 184.00 257.00 Z"/>
</g>
<g fill="#687578" fill-opacity="0.89" stroke="None">
<path d="
M 457.00 258.00 
C 458.72 255.46 458.56 249.61 457.00 247.00
C 457.00 250.67 457.00 254.33 457.00 258.00 Z"/>
</g>
<g fill="#2D3B43" fill-opacity="1.00" stroke="None">
<path d="
M 275.00 383.00 
C 277.33 339.32 275.33 293.50 276.00 249.00
C 273.67 292.68 275.67 338.50 275.00 383.00 Z"/>
</g>
<g fill="#869197" fill-opacity="0.86" stroke="None">
<path d="
M 26.00 262.00 
C 29.64 259.23 33.13 255.64 36.00 252.00
C 32.36 254.77 28.87 258.36 26.00 262.00 Z"/>
</g>
<g fill="#8D999F" fill-opacity="0.98" stroke="None">
<path d="
M 200.00 364.00 
C 204.31 364.06 200.93 351.76 202.00 347.00 C 201.33 320.82 203.33 293.43 201.00 268.00
C 200.33 299.85 202.33 332.90 200.00 364.00 Z"/>
</g>
<g fill="#323E48" fill-opacity="1.00" stroke="None">
<path d="
M 336.00 269.00 
C 340.50 273.10 336.79 283.48 338.00 290.00 C 338.00 298.00 338.00 306.00 338.00 314.00
C 340.33 306.66 338.34 297.17 339.00 289.00 C 337.59 283.35 342.17 269.12 336.00 269.00 Z"/>
</g>
<g fill="#9BA8B0" fill-opacity="0.78" stroke="None">
<path d="
M 439.00 284.00 
C 439.00 283.96 440.00 284.00 440.00 284.00
C 440.00 278.67 440.00 273.33 440.00 268.00
C 437.69 272.34 439.65 278.84 439.00 284.00 Z"/>
</g>
<g fill="#000000" fill-opacity="0.00" stroke="None">
<path d="
M 307.00 314.00 
C 312.92 312.37 322.15 312.31 328.00 314.00
C 331.40 313.40 334.46 312.53 338.00 314.00
C 338.00 306.00 338.00 298.00 338.00 290.00 C 336.79 283.48 340.50 273.10 336.00 269.00
C 335.00 269.00 334.00 269.00 333.00 269.00
C 325.41 270.65 314.52 270.68 307.00 269.00
C 305.33 269.00 303.67 269.00 302.00 269.00
C 302.00 284.00 302.00 299.00 302.00 314.00
C 303.67 314.00 305.33 314.00 307.00 314.00 Z"/>
</g>
<g fill="#768690" fill-opacity="0.95" stroke="None">
<path d="
M 333.00 269.00 
C 324.33 269.00 315.67 269.00 307.00 269.00
C 314.52 270.68 325.41 270.65 333.00 269.00 Z"/>
</g>
<g fill="#3C4B4E" fill-opacity="1.00" stroke="None">
<path d="
M 231.00 385.00 
C 231.00 349.67 231.00 314.33 231.00 279.00
C 229.33 313.19 229.33 350.73 231.00 385.00 Z"/>
</g>
<g fill="#47535C" fill-opacity="1.00" stroke="None">
<path d="
M 410.00 388.00 
C 411.67 352.81 411.67 314.27 410.00 279.00
C 410.00 315.33 410.00 351.67 410.00 388.00 Z"/>
</g>
<g fill="#A9B6BD" fill-opacity="0.57" stroke="None">
<path d="
M 439.00 297.00 
C 439.00 296.96 440.00 297.00 440.00 297.00
C 440.00 292.67 440.00 288.33 440.00 284.00
C 440.00 284.00 439.00 283.96 439.00 284.00
C 439.00 288.33 439.00 292.67 439.00 297.00 Z"/>
</g>
<g fill="#B7BEC2" fill-opacity="0.15" stroke="None">
<path d="
M 439.00 319.00 
C 441.33 312.66 439.34 304.16 440.00 297.00
C 440.00 297.00 439.00 296.96 439.00 297.00
C 439.00 304.33 439.00 311.67 439.00 319.00 Z"/>
</g>
<g fill="#B4C0C4" fill-opacity="0.15" stroke="None">
<path d="
M 307.00 314.00 
C 314.00 314.00 321.00 314.00 328.00 314.00
C 322.15 312.31 312.92 312.37 307.00 314.00 Z"/>
</g>
<g fill="#616D73" fill-opacity="0.97" stroke="None">
<path d="
M 637.00 331.00 
C 638.69 326.15 638.62 317.92 637.00 313.00
C 637.00 319.00 637.00 325.00 637.00 331.00 Z"/>
</g>
<g fill="#697882" fill-opacity="1.00" stroke="None">
<path d="
M 33.00 327.00 
C 33.00 323.67 33.00 320.33 33.00 317.00
C 31.28 319.21 31.46 324.72 33.00 327.00 Z"/>
</g>
<g fill="#A6B3BC" fill-opacity="0.51" stroke="None">
<path d="
M 441.00 364.00 
C 438.03 356.81 441.96 346.26 439.00 339.00
C 439.00 344.00 439.00 349.00 439.00 354.00 C 439.69 356.65 437.27 366.03 441.00 364.00 Z"/>
</g>
<g fill="#8E9CA4" fill-opacity="0.88" stroke="None">
<path d="
M 591.00 365.00 
C 592.68 364.25 594.04 362.57 595.00 361.00
C 593.32 361.75 591.96 363.43 591.00 365.00 Z"/>
</g>
<g fill="#6D7D87" fill-opacity="1.00" stroke="None">
<path d="
M 57.00 372.00 
C 54.23 368.36 50.64 364.87 47.00 362.00
C 49.77 365.64 53.36 369.13 57.00 372.00 Z"/>
</g>
<g fill="#94A3AD" fill-opacity="0.95" stroke="None">
<path d="
M 366.00 388.00 
C 365.38 382.49 367.26 375.75 365.00 371.00
C 365.62 376.51 363.74 383.25 366.00 388.00 Z"/>
</g>
<g fill="#93A2AA" fill-opacity="0.61" stroke="None">
<path d="
M 179.00 388.00 
C 180.45 388.17 185.79 388.23 183.00 386.00
C 182.60 388.11 179.47 386.02 179.00 388.00 Z"/>
</g>
<g fill="#87959E" fill-opacity="0.80" stroke="None">
<path d="
M 101.00 388.00 
C 99.30 385.81 95.52 387.56 93.00 387.00
C 94.70 389.19 98.48 387.44 101.00 388.00 Z"/>
</g>
<g fill="#3F4B55" fill-opacity="1.00" stroke="None">
<path d="
M 91.00 452.00 
C 90.34 439.82 92.32 426.43 90.00 415.00
C 90.66 427.18 88.68 440.57 91.00 452.00 Z"/>
</g>
<g fill="#97A7B2" fill-opacity="0.95" stroke="None">
<path d="
M 118.00 419.00 
C 121.33 419.00 124.67 419.00 128.00 419.00
C 127.96 419.00 128.00 418.00 128.00 418.00
C 124.82 418.53 120.43 416.87 118.00 419.00 Z"/>
</g>
<g fill="#ACBCC9" fill-opacity="0.33" stroke="None">
<path d="
M 128.00 419.00 
C 131.17 418.39 135.65 420.25 138.00 418.00
C 134.67 418.00 131.33 418.00 128.00 418.00
C 128.00 418.00 127.96 419.00 128.00 419.00 Z"/>
</g>
<g fill="#000000" fill-opacity="0.00" stroke="None">
<path d="
M 128.00 419.00 
C 124.67 419.00 121.33 419.00 118.00 419.00
C 117.40 437.76 117.43 457.07 129.00 472.00
C 132.23 475.20 136.49 477.24 139.00 481.00
C 144.99 483.01 150.48 486.71 157.00 487.00
C 265.67 487.00 374.33 487.00 483.00 487.00
C 503.09 485.01 520.68 467.23 522.00 447.00
C 522.66 438.50 520.67 428.67 523.00 421.00
C 523.21 419.58 522.29 418.44 521.00 418.00
C 516.41 419.62 508.52 419.70 504.00 418.00
C 382.00 418.00 260.00 418.00 138.00 418.00
C 135.65 420.25 131.17 418.39 128.00 419.00
M 305.00 442.00 
C 318.48 447.76 311.83 469.26 297.00 465.00 C 282.31 461.35 289.61 436.47 305.00 442.00
M 336.00 465.00 
C 333.36 464.84 331.38 461.98 330.00 460.00
C 323.67 447.58 337.91 438.35 346.25 443.19 C 358.19 449.39 349.56 469.98 336.00 465.00 Z"/>
</g>
<g fill="#ABBBCA" fill-opacity="0.33" stroke="None">
<path d="
M 521.00 418.00 
C 515.33 418.00 509.67 418.00 504.00 418.00
C 508.52 419.70 516.41 419.62 521.00 418.00 Z"/>
</g>
<g fill="#A9B7C4" fill-opacity="0.40" stroke="None">
<path d="
M 522.00 447.00 
C 524.33 439.33 522.34 429.50 523.00 421.00
C 520.67 428.67 522.66 438.50 522.00 447.00 Z"/>
</g>
<g fill="#132430" fill-opacity="0.99" stroke="None">
<path d="
M 305.00 442.00 
C 289.61 436.47 282.31 461.35 297.00 465.00 C 311.83 469.26 318.48 447.76 305.00 442.00 Z"/>
</g>
<g fill="#122530" fill-opacity="0.99" stroke="None">
<path d="
M 330.00 460.00 
C 332.15 461.49 334.14 463.52 336.00 465.00
C 349.56 469.98 358.19 449.39 346.25 443.19 C 337.91 438.35 323.67 447.58 330.00 460.00 Z"/>
</g>
<g fill="#83929B" fill-opacity="0.82" stroke="None">
<path d="
M 336.00 465.00 
C 334.14 463.52 332.15 461.49 330.00 460.00
C 331.38 461.98 333.36 464.84 336.00 465.00 Z"/>
</g>
<g fill="#76828A" fill-opacity="0.80" stroke="None">
<path d="
M 139.00 481.00 
C 136.49 477.24 132.23 475.20 129.00 472.00
C 131.38 475.93 135.52 478.24 139.00 481.00 Z"/>
</g>
<g fill="#6B7C84" fill-opacity="1.00" stroke="None">
<path d="
M 483.00 487.00 
C 374.33 487.00 265.67 487.00 157.00 487.00
C 264.53 488.67 375.40 488.67 483.00 487.00 Z"/>
</g>
<g fill="#7B888F" fill-opacity="0.91" stroke="None">
<path d="
M 116.00 499.00 
C 113.56 495.69 110.30 492.54 107.00 490.00
C 109.44 493.31 112.70 496.46 116.00 499.00 Z"/>
</g>
<g fill="#68757A" fill-opacity="0.94" stroke="None">
<path d="
M 525.00 499.00 
C 528.31 496.56 531.46 493.30 534.00 490.00
C 530.69 492.44 527.54 495.70 525.00 499.00 Z"/>
</g>
<g fill="#8E9AA1" fill-opacity="1.00" stroke="None">
<path d="
M 243.00 516.00 
C 242.96 516.00 243.00 515.00 243.00 515.00
C 213.67 515.00 184.33 515.00 155.00 515.00
C 183.35 517.33 213.83 515.33 243.00 516.00 Z"/>
</g>
<g fill="#A2AFB5" fill-opacity="0.84" stroke="None">
<path d="
M 243.00 516.00 
C 247.33 516.00 251.67 516.00 256.00 516.00
C 252.66 513.71 247.17 515.64 243.00 515.00
C 243.00 515.00 242.96 516.00 243.00 516.00 Z"/>
</g>
<g fill="#7C8C97" fill-opacity="0.98" stroke="None">
<path d="
M 283.00 520.00 
C 284.60 519.47 283.72 517.25 284.00 516.00
C 296.67 516.00 309.33 516.00 322.00 516.00 C 333.69 517.26 348.03 513.44 358.00 518.00
C 358.00 517.00 358.00 516.00 358.00 515.00
C 340.00 515.00 322.00 515.00 304.00 515.00 C 297.60 516.92 283.14 510.36 283.00 520.00 Z"/>
</g>
<g fill="#8F9CA3" fill-opacity="0.96" stroke="None">
<path d="
M 485.00 515.00 
C 453.33 515.00 421.67 515.00 390.00 515.00
C 420.53 516.67 454.40 516.67 485.00 515.00 Z"/>
</g>
<g fill="#000000" fill-opacity="0.00" stroke="None">
<path d="
M 283.00 520.00 
C 282.38 529.14 279.44 537.69 276.00 546.00
C 305.67 546.00 335.33 546.00 365.00 546.00
C 363.22 543.25 362.80 540.05 362.00 537.00
C 360.67 535.27 360.25 532.38 360.00 530.00
C 358.64 526.18 357.85 522.20 358.00 518.00
C 348.03 513.44 333.69 517.26 322.00 516.00 C 309.33 516.00 296.67 516.00 284.00 516.00
C 283.72 517.25 284.60 519.47 283.00 520.00 Z"/>
</g>
<g fill="#859099" fill-opacity="0.74" stroke="None">
<path d="
M 362.00 537.00 
C 362.19 534.50 361.50 531.68 360.00 530.00
C 360.25 532.38 360.67 535.27 362.00 537.00 Z"/>
</g>
<g fill="#56646F" fill-opacity="1.00" stroke="None">
<path d="
M 365.00 546.00 
C 335.33 546.00 305.67 546.00 276.00 546.00
C 304.53 547.67 336.40 547.66 365.00 546.00 Z"/>
</g>
<g fill="#536066" fill-opacity="0.91" stroke="None">
<path d="
M 227.00 573.00 
C 232.69 568.69 237.44 563.01 241.00 557.00
C 236.09 561.84 232.11 567.91 227.00 573.00 Z"/>
</g>
<g fill="#000000" fill-opacity="0.00" stroke="None">
<path d="
M 263.00 580.00 
C 304.00 580.00 345.00 580.00 386.00 580.00
C 387.00 580.00 388.00 580.00 389.00 580.00
C 382.76 572.76 377.25 563.63 366.00 567.00 C 331.42 567.66 296.17 565.68 262.00 568.00
C 263.03 572.76 254.97 575.50 253.00 580.00
C 256.33 580.00 259.67 580.00 263.00 580.00 Z"/>
</g>
<g fill="#28353D" fill-opacity="1.00" stroke="None">
<path d="
M 386.00 580.00 
C 345.00 580.00 304.00 580.00 263.00 580.00
C 302.86 581.67 346.07 581.67 386.00 580.00 Z"/>
</g>
<g fill="#758288" fill-opacity="0.86" stroke="None">
<path d="
M 207.00 588.00 
C 209.71 585.82 212.66 583.38 215.00 581.00
C 211.70 582.26 209.05 585.09 207.00 588.00 Z"/>
</g>
<g fill="#415454" fill-opacity="1.00" stroke="None">
<path d="
M 424.00 608.00 
C 354.67 608.00 285.33 608.00 216.00 608.00
C 284.20 609.67 355.73 609.67 424.00 608.00 Z"/>
</g>
</svg>